<mxfile host="app.diagrams.net" modified="2024-06-12T06:14:00.840Z" agent="Mozilla/5.0 (Windows NT 10.0; Win64; x64) AppleWebKit/537.36 (KHTML, like Gecko) Chrome/125.0.0.0 Safari/537.36" version="24.5.2" etag="HFh4Dl1imzgToEif3ytd" type="github">
  <diagram name="Page-1" id="X96pb6gemrsFgxf1uW4I">
    <mxGraphModel>
      <root>
        <mxCell id="0" />
        <mxCell id="1" parent="0" />
      </root>
    </mxGraphModel>
  </diagram>
</mxfile>
